<svg width="25" height="27" viewBox="0 0 25 27" fill="none" xmlns="http://www.w3.org/2000/svg">
<path d="M24.7538 10.7182C24.9132 11.5884 25 12.4982 25 13.4476C25 20.8738 20.1226 26.1543 12.7559 26.1543C11.0806 26.1548 9.42169 25.819 7.87384 25.1659C6.32599 24.5129 4.91958 23.5554 3.73498 22.3483C2.55039 21.1412 1.61081 19.708 0.969947 18.1307C0.329083 16.5534 -0.000510188 14.8629 5.9277e-07 13.1558C-0.000510188 11.4486 0.329083 9.75812 0.969947 8.18083C1.61081 6.60354 2.55039 5.17038 3.73498 3.96325C4.91958 2.75612 6.32599 1.79868 7.87384 1.14562C9.42169 0.492569 11.0806 0.156707 12.7559 0.157227C16.2002 0.157227 19.0782 1.44863 21.2862 3.54551L17.6904 7.20977V7.20053C16.3518 5.9012 14.653 5.23437 12.7559 5.23437C8.54714 5.23437 5.12621 8.8577 5.12621 13.1479C5.12621 17.4367 8.54714 21.0679 12.7559 21.0679C16.5747 21.0679 19.1741 18.843 19.7079 15.7874H12.7559V10.7182H24.7551H24.7538Z" fill="white"/>
</svg>
