<svg width="25" height="26" viewBox="0 0 25 26" fill="none" xmlns="http://www.w3.org/2000/svg">
<path fill-rule="evenodd" clip-rule="evenodd" d="M7.34659 0.254679C8.67955 0.193322 9.10455 0.179688 12.5 0.179688C15.8955 0.179688 16.3205 0.194459 17.6523 0.254679C18.9841 0.3149 19.8932 0.527376 20.6886 0.835296C21.5216 1.15003 22.2773 1.64202 22.9023 2.27832C23.5386 2.90211 24.0295 3.65657 24.3432 4.49057C24.6523 5.28594 24.8636 6.19493 24.925 7.52432C24.9864 8.8594 25 9.28435 25 12.6783C25 16.0734 24.9852 16.4983 24.925 17.8311C24.8648 19.1605 24.6523 20.0695 24.3432 20.8649C24.0295 21.699 23.5378 22.4547 22.9023 23.0794C22.2773 23.7157 21.5216 24.2066 20.6886 24.5202C19.8932 24.8292 18.9841 25.0406 17.6545 25.1019C16.3205 25.1633 15.8955 25.1769 12.5 25.1769C9.10455 25.1769 8.67955 25.1621 7.34659 25.1019C6.01705 25.0417 5.10795 24.8292 4.3125 24.5202C3.47832 24.2065 2.72252 23.7149 2.09773 23.0794C1.4618 22.4552 0.969676 21.6999 0.655682 20.866C0.347727 20.0707 0.136364 19.1617 0.075 17.8323C0.0136363 16.4972 0 16.0722 0 12.6783C0 9.28322 0.0147727 8.85826 0.075 7.5266C0.135227 6.19493 0.347727 5.28594 0.655682 4.49057C0.97014 3.65667 1.46264 2.90133 2.09886 2.27718C2.72277 1.64146 3.47781 1.1494 4.31136 0.835296C5.10682 0.527376 6.01591 0.316036 7.34546 0.254679H7.34659ZM17.5511 2.50443C16.233 2.44421 15.8375 2.43171 12.5 2.43171C9.1625 2.43171 8.76705 2.44421 7.44886 2.50443C6.22955 2.5601 5.56818 2.76349 5.12727 2.93506C4.54432 3.16231 4.12727 3.4316 3.68977 3.86905C3.27505 4.27247 2.95589 4.76359 2.75568 5.30639C2.58409 5.74725 2.38068 6.40854 2.325 7.62772C2.26477 8.94576 2.25227 9.34117 2.25227 12.6783C2.25227 16.0154 2.26477 16.4108 2.325 17.7289C2.38068 18.948 2.58409 19.6093 2.75568 20.0502C2.95568 20.5922 3.275 21.0842 3.68977 21.4875C4.09318 21.9023 4.58523 22.2215 5.12727 22.4215C5.56818 22.5931 6.22955 22.7965 7.44886 22.8522C8.76705 22.9124 9.16136 22.9249 12.5 22.9249C15.8386 22.9249 16.233 22.9124 17.5511 22.8522C18.7705 22.7965 19.4318 22.5931 19.8727 22.4215C20.4557 22.1943 20.8727 21.925 21.3102 21.4875C21.725 21.0842 22.0443 20.5922 22.2443 20.0502C22.4159 19.6093 22.6193 18.948 22.675 17.7289C22.7352 16.4108 22.7477 16.0154 22.7477 12.6783C22.7477 9.34117 22.7352 8.94576 22.675 7.62772C22.6193 6.40854 22.4159 5.74725 22.2443 5.30639C22.017 4.7235 21.7477 4.3065 21.3102 3.86905C20.9067 3.4544 20.4156 3.13528 19.8727 2.93506C19.4318 2.76349 18.7705 2.5601 17.5511 2.50443ZM10.9034 16.5313C11.7951 16.9024 12.7879 16.9525 13.7124 16.673C14.6369 16.3935 15.4357 15.8017 15.9723 14.9988C16.5089 14.1958 16.7501 13.2315 16.6546 12.2705C16.5591 11.3095 16.133 10.4115 15.4489 9.72976C15.0128 9.29399 14.4855 8.96031 13.9049 8.75276C13.3244 8.54521 12.705 8.46895 12.0915 8.52946C11.4779 8.58997 10.8854 8.78575 10.3566 9.1027C9.82779 9.41966 9.37585 9.84991 9.0333 10.3625C8.69075 10.875 8.46612 11.4572 8.37559 12.067C8.28505 12.6767 8.33085 13.299 8.5097 13.889C8.68856 14.4789 8.996 15.0219 9.40991 15.4788C9.82382 15.9357 10.3339 16.2951 10.9034 16.5313ZM7.95682 8.13562C8.55344 7.53907 9.26173 7.06585 10.0412 6.743C10.8208 6.42015 11.6563 6.25398 12.5 6.25398C13.3437 6.25398 14.1792 6.42015 14.9588 6.743C15.7383 7.06585 16.4466 7.53907 17.0432 8.13562C17.6398 8.73217 18.1131 9.44038 18.436 10.2198C18.7588 10.9992 18.925 11.8346 18.925 12.6783C18.925 13.5219 18.7588 14.3573 18.436 15.1368C18.1131 15.9162 17.6398 16.6244 17.0432 17.221C15.8383 18.4258 14.204 19.1026 12.5 19.1026C10.796 19.1026 9.16175 18.4258 7.95682 17.221C6.75189 16.0162 6.07497 14.3821 6.07497 12.6783C6.07497 10.9745 6.75189 9.34041 7.95682 8.13562ZM20.35 7.21072C20.4978 7.07127 20.6162 6.90357 20.6981 6.71757C20.7799 6.53156 20.8237 6.33101 20.8266 6.12781C20.8296 5.9246 20.7917 5.72287 20.7153 5.53456C20.6389 5.34624 20.5255 5.17517 20.3818 5.03146C20.2381 4.88776 20.067 4.77435 19.8786 4.69795C19.6903 4.62155 19.4885 4.58371 19.2853 4.58668C19.0821 4.58964 18.8815 4.63334 18.6955 4.7152C18.5095 4.79706 18.3417 4.9154 18.2023 5.06323C17.931 5.35074 17.7825 5.73261 17.7883 6.12781C17.7941 6.523 17.9536 6.90039 18.2331 7.17986C18.5126 7.45934 18.8901 7.61889 19.2853 7.62465C19.6805 7.63041 20.0625 7.48193 20.35 7.21072Z" fill="white"/>
</svg>
