<svg width="273" height="45" viewBox="0 0 273 45" fill="none" xmlns="http://www.w3.org/2000/svg">
<path d="M7.93854 36.2901V9.69753H2.37109V36.2901H7.93854ZM26.1783 36.2901V14.2863H33.8843V9.69753H12.9234V14.2863H20.611V36.2901H26.1783ZM37.8553 28.7159C38.0211 33.7102 42.0953 36.7509 48.4923 36.7509C55.0922 36.7509 59.2769 33.4889 59.2769 28.3289C59.2769 24.2747 56.9541 21.9894 51.6262 20.8468L48.4002 20.165C45.3398 19.4648 44.0495 18.5433 44.0495 16.9031C44.0495 14.9312 45.8929 13.6229 48.6398 13.6229C51.4235 13.6229 53.3961 14.9865 53.5805 17.2348H58.7976C58.7054 12.425 54.8155 9.23682 48.6213 9.23682C42.6852 9.23682 38.4451 12.4803 38.4451 17.3823C38.4451 21.2707 40.8602 23.7586 45.7638 24.809L49.2298 25.5646C52.4374 26.2833 53.7095 27.2416 53.7095 28.974C53.7095 30.9274 51.6816 32.3464 48.7136 32.3464C45.7638 32.3464 43.4779 30.909 43.2199 28.7159H37.8553ZM76.7793 27.8314V23.132H64.6674V27.8314H76.7793ZM83.1837 9.69753V36.2901H88.7512V27.905H93.7286C99.333 27.905 103.223 24.2562 103.223 18.8012C103.223 13.328 99.4619 9.69753 94.0051 9.69753H83.1837ZM88.7512 14.102H92.5303C95.7197 14.102 97.5631 15.7974 97.5631 18.8197C97.5631 21.8605 95.7012 23.5558 92.5119 23.5558H88.7512V14.102ZM113.978 14.0467H118.716C121.481 14.0467 123.214 15.7052 123.214 18.2853C123.214 20.9206 121.573 22.5239 118.771 22.5239H113.978V14.0467ZM113.978 26.5598H118.439L123.398 36.2901H129.703L124.099 25.7305C127.159 24.5326 128.929 21.584 128.929 18.1747C128.929 12.9225 125.426 9.69753 119.306 9.69753H108.41V36.2901H113.978V26.5598Z" fill="black" fill-opacity="0.8"/>
<path d="M175.257 28.4579C175.257 33.5442 178.816 36.843 184.254 36.843C189.951 36.843 193.343 33.618 193.343 27.9603V9.69753H187.776V27.9235C187.776 30.5956 186.521 32.0331 184.199 32.0331C182.096 32.0331 180.697 30.614 180.659 28.4579H175.257ZM217.499 31.683H205.444V24.9749H216.818V20.6995H205.444V14.2863H217.499V9.69753H199.876V36.2901H217.499V31.683ZM235.169 36.7509C241.695 36.7509 246.248 32.9913 246.874 27.0573H241.455C240.865 30.2086 238.487 32.1437 235.186 32.1437C230.929 32.1437 228.255 28.6421 228.255 22.9662C228.255 17.3638 230.965 13.844 235.169 13.844C238.413 13.844 240.921 15.9818 241.436 19.2435H246.855C246.431 13.2911 241.565 9.23682 235.169 9.23682C227.462 9.23682 222.577 14.4153 222.577 22.9846C222.577 31.5724 227.426 36.7509 235.169 36.7509ZM263.289 36.2901V14.2863H270.996V9.69753H250.034V14.2863H257.722V36.2901H263.289Z" fill="black" fill-opacity="0.8"/>
<path d="M152.995 41.3711C163.621 41.3711 172.235 32.7598 172.235 22.1372C172.235 11.5146 163.621 2.90332 152.995 2.90332C142.368 2.90332 133.754 11.5146 133.754 22.1372C133.754 32.7598 142.368 41.3711 152.995 41.3711Z" fill="#2264D2"/>
<path d="M152.994 35.4533C160.351 35.4533 166.315 29.4916 166.315 22.1375C166.315 14.7834 160.351 8.82178 152.994 8.82178C145.638 8.82178 139.674 14.7834 139.674 22.1375C139.674 29.4916 145.638 35.4533 152.994 35.4533Z" fill="white"/>
<path d="M152.995 31.5073C158.172 31.5073 162.368 27.3121 162.368 22.137C162.368 16.9618 158.172 12.7666 152.995 12.7666C147.818 12.7666 143.621 16.9618 143.621 22.137C143.621 27.3121 147.818 31.5073 152.995 31.5073Z" fill="#3A556A"/>
<path d="M160.396 22.137C160.396 26.2225 157.082 29.5345 152.996 29.5345C148.908 29.5345 145.596 26.2225 145.596 22.137C145.596 18.0513 148.908 14.7393 152.996 14.7393C157.082 14.7393 160.396 18.0513 160.396 22.137ZM147.058 22.137C147.058 25.415 149.717 28.0723 152.996 28.0723C156.275 28.0723 158.933 25.415 158.933 22.137C158.933 18.8588 156.275 16.2015 152.996 16.2015C149.717 16.2015 147.058 18.8588 147.058 22.137Z" fill="#64798A"/>
<path d="M152.996 25.5891C154.904 25.5891 156.45 24.0434 156.45 22.1368C156.45 20.2302 154.904 18.6846 152.996 18.6846C151.089 18.6846 149.543 20.2302 149.543 22.1368C149.543 24.0434 151.089 25.5891 152.996 25.5891Z" fill="#2F4859"/>
<path d="M155.433 20.5981C155.961 20.5981 156.39 20.1697 156.39 19.6413C156.39 19.1129 155.961 18.6846 155.433 18.6846C154.904 18.6846 154.476 19.1129 154.476 19.6413C154.476 20.1697 154.904 20.5981 155.433 20.5981Z" fill="white"/>
</svg>
