<svg width="115" height="40" viewBox="0 0 115 40" fill="none" xmlns="http://www.w3.org/2000/svg">
<path d="M0 7C0 3.13401 3.13401 0 7 0H108C111.866 0 115 3.13401 115 7V33C115 36.866 111.866 40 108 40H7C3.13401 40 0 36.866 0 33V7Z" fill="url(#paint0_linear_87_473)"/>
<path fill-rule="evenodd" clip-rule="evenodd" d="M62.414 16.3253C62.5013 16.4124 62.5706 16.5158 62.6178 16.6297C62.6651 16.7436 62.6894 16.8657 62.6894 16.9891C62.6894 17.1124 62.6651 17.2345 62.6178 17.3484C62.5706 17.4623 62.5013 17.5658 62.414 17.6529L56.7884 23.2785C56.7013 23.3658 56.5979 23.435 56.484 23.4823C56.37 23.5296 56.2479 23.5539 56.1246 23.5539C56.0013 23.5539 55.8792 23.5296 55.7653 23.4823C55.6514 23.435 55.5479 23.3658 55.4608 23.2785L52.648 20.4657C52.5608 20.3785 52.4917 20.275 52.4445 20.1611C52.3973 20.0472 52.373 19.9251 52.373 19.8019C52.373 19.6786 52.3973 19.5565 52.4445 19.4426C52.4917 19.3287 52.5608 19.2252 52.648 19.138C52.7352 19.0509 52.8387 18.9817 52.9526 18.9345C53.0665 18.8874 53.1885 18.8631 53.3118 18.8631C53.4351 18.8631 53.5572 18.8874 53.6711 18.9345C53.785 18.9817 53.8885 19.0509 53.9756 19.138L56.1246 21.2889L61.0864 16.3253C61.1735 16.2379 61.2769 16.1687 61.3908 16.1214C61.5047 16.0741 61.6268 16.0498 61.7502 16.0498C61.8735 16.0498 61.9956 16.0741 62.1095 16.1214C62.2234 16.1687 62.3269 16.2379 62.414 16.3253Z" fill="white"/>
<path d="M62.2623 9.51305L60.5353 7.74307L61.876 6.43433L63.0424 7.62869L64.7113 7.60807C65.4337 7.59952 66.1506 7.73549 66.8196 8.00798C67.4887 8.28047 68.0966 8.68398 68.6075 9.19479C69.1183 9.70559 69.5219 10.3134 69.7944 10.9824C70.0669 11.6514 70.2029 12.3682 70.1944 13.0905L70.1756 14.7592L71.3682 15.9255C71.8848 16.4302 72.2952 17.033 72.5754 17.6985C72.8556 18.3641 73 19.0789 73 19.8011C73 20.5232 72.8556 21.238 72.5754 21.9036C72.2952 22.5691 71.8848 23.172 71.3682 23.6766L70.1737 24.8429L70.1944 26.5116C70.2029 27.2339 70.0669 27.9507 69.7944 28.6197C69.5219 29.2887 69.1183 29.8965 68.6075 30.4073C68.0966 30.9181 67.4887 31.3217 66.8196 31.5941C66.1506 31.8666 65.4337 32.0026 64.7113 31.9941L63.0424 31.9753L61.876 33.1678C61.3713 33.6843 60.7684 34.0947 60.1028 34.3749C59.4371 34.6551 58.7222 34.7994 58 34.7994C57.2778 34.7994 56.5629 34.6551 55.8973 34.3749C55.2316 34.0947 54.6287 33.6843 54.124 33.1678L52.9576 31.9734L51.2887 31.9941C50.5663 32.0026 49.8495 31.8666 49.1804 31.5941C48.5113 31.3217 47.9034 30.9181 47.3925 30.4073C46.8817 29.8965 46.4781 29.2887 46.2056 28.6197C45.9331 27.9507 45.7971 27.2339 45.8056 26.5116L45.8244 24.8429L44.6318 23.6766C44.1152 23.172 43.7048 22.5691 43.4246 21.9036C43.1444 21.238 43 20.5232 43 19.8011C43 19.0789 43.1444 18.3641 43.4246 17.6985C43.7048 17.033 44.1152 16.4302 44.6318 15.9255L45.8263 14.7592L45.8056 13.0905C45.7971 12.3682 45.9331 11.6514 46.2056 10.9824C46.4781 10.3134 46.8817 9.70559 47.3925 9.19479C47.9034 8.68398 48.5113 8.28047 49.1804 8.00798C49.8495 7.73549 50.5663 7.59952 51.2887 7.60807L52.9576 7.62682L54.124 6.43433C54.6287 5.91785 55.2316 5.50746 55.8973 5.22726C56.5629 4.94707 57.2778 4.80273 58 4.80273C58.7222 4.80273 59.4371 4.94707 60.1028 5.22726C60.7684 5.50746 61.3713 5.91785 61.876 6.43433L60.5353 7.74307C60.2052 7.40517 59.8108 7.13667 59.3754 6.95336C58.9401 6.77004 58.4724 6.67561 58 6.67561C57.5276 6.67561 57.06 6.77004 56.6246 6.95336C56.1892 7.13667 55.7949 7.40517 55.4647 7.74307L53.7396 9.51305L51.2643 9.48305C50.7921 9.47777 50.3236 9.56691 49.8863 9.74522C49.449 9.92354 49.0518 10.1874 48.718 10.5214C48.3841 10.8554 48.1204 11.2527 47.9423 11.69C47.7642 12.1274 47.6753 12.5959 47.6808 13.068L47.7108 15.5392L45.9407 17.2661C45.6027 17.5962 45.3342 17.9904 45.1509 18.4258C44.9675 18.8611 44.8731 19.3287 44.8731 19.8011C44.8731 20.2734 44.9675 20.741 45.1509 21.1763C45.3342 21.6117 45.6027 22.006 45.9407 22.336L47.7108 24.061L47.6808 26.536C47.6756 27.0081 47.7647 27.4766 47.943 27.9138C48.1214 28.3511 48.3853 28.7482 48.7193 29.082C49.0533 29.4158 49.4507 29.6795 49.8881 29.8576C50.3254 30.0357 50.794 30.1246 51.2662 30.1191L53.7377 30.0891L55.4647 31.8591C55.7949 32.197 56.1892 32.4655 56.6246 32.6488C57.06 32.8321 57.5276 32.9265 58 32.9265C58.4724 32.9265 58.9401 32.8321 59.3754 32.6488C59.8108 32.4655 60.2052 32.197 60.5353 31.8591L62.2604 30.0891L64.7357 30.1191C65.2079 30.1244 65.6764 30.0352 66.1137 29.8569C66.551 29.6786 66.9482 29.4147 67.282 29.0807C67.6159 28.7467 67.8796 28.3494 68.0577 27.9121C68.2358 27.4748 68.3247 27.0063 68.3192 26.5341L68.2892 24.0629L70.0593 22.336C70.3973 22.006 70.6658 21.6117 70.8491 21.1763C71.0325 20.741 71.1269 20.2734 71.1269 19.8011C71.1269 19.3287 71.0325 18.8611 70.8491 18.4258C70.6658 17.9904 70.3973 17.5962 70.0593 17.2661L68.2892 15.5411L68.3192 13.0661C68.3244 12.594 68.2353 12.1255 68.057 11.6883C67.8786 11.2511 67.6147 10.8539 67.2807 10.5201C66.9467 10.1863 66.5493 9.92259 66.1119 9.7445C65.6746 9.56641 65.206 9.47752 64.7338 9.48305L62.2623 9.51305Z" fill="white"/>
<defs>
<linearGradient id="paint0_linear_87_473" x1="115" y1="20" x2="-3.10203e-07" y2="20" gradientUnits="userSpaceOnUse">
<stop stop-color="#3C8DE9"/>
<stop offset="1" stop-color="#4745E9"/>
</linearGradient>
</defs>
</svg>
