<svg width="27" height="26" viewBox="0 0 27 26" fill="none" xmlns="http://www.w3.org/2000/svg">
<path fill-rule="evenodd" clip-rule="evenodd" d="M0 9.75001C0 15.1347 4.53312 19.5 10.125 19.5C12.4627 19.5 14.6154 18.7371 16.3292 17.4558C16.3938 17.5872 16.4825 17.7104 16.5954 17.8193L24.6954 25.6193C25.2226 26.1269 26.0774 26.1269 26.6046 25.6193C27.1318 25.1116 27.1318 24.2885 26.6046 23.7808L18.5046 15.9808C18.3916 15.872 18.2636 15.7866 18.1272 15.7244C19.4577 14.0741 20.25 12.0011 20.25 9.75001C20.25 4.36522 15.7169 0 10.125 0C4.53312 0 0 4.36522 0 9.75001ZM2.70001 9.75001C2.70001 5.80117 6.02429 2.6 10.125 2.6C14.2257 2.6 17.55 5.80117 17.55 9.75001C17.55 13.6989 14.2257 16.9 10.125 16.9C6.02429 16.9 2.70001 13.6989 2.70001 9.75001Z" fill="white"/>
</svg>
