<svg width="230" height="67" viewBox="0 0 230 67" fill="none" xmlns="http://www.w3.org/2000/svg">
<path d="M0 7.46289C0 3.5969 3.13401 0.462891 7 0.462891H223C226.866 0.462891 230 3.5969 230 7.46289V59.4629C230 63.3289 226.866 66.4629 223 66.4629H7C3.13401 66.4629 0 63.3289 0 59.4629V7.46289Z" fill="url(#paint0_linear_87_399)"/>
<path d="M61.6293 26.271V40.8164H58.5895V28.771H52.7088V40.8164H49.669V26.271H61.6293ZM69.4293 41.0295C68.3261 41.0295 67.372 40.7951 66.5671 40.3263C65.7669 39.8529 65.149 39.1947 64.7134 38.3519C64.2778 37.5044 64.06 36.5219 64.06 35.4045C64.06 34.2776 64.2778 33.2927 64.7134 32.4499C65.149 31.6024 65.7669 30.9442 66.5671 30.4755C67.372 30.002 68.3261 29.7653 69.4293 29.7653C70.5326 29.7653 71.4843 30.002 72.2844 30.4755C73.0894 30.9442 73.7096 31.6024 74.1452 32.4499C74.5808 33.2927 74.7987 34.2776 74.7987 35.4045C74.7987 36.5219 74.5808 37.5044 74.1452 38.3519C73.7096 39.1947 73.0894 39.8529 72.2844 40.3263C71.4843 40.7951 70.5326 41.0295 69.4293 41.0295ZM69.4435 38.6857C69.9454 38.6857 70.3645 38.5437 70.7006 38.2596C71.0368 37.9708 71.2901 37.5778 71.4606 37.0806C71.6358 36.5835 71.7234 36.0176 71.7234 35.3832C71.7234 34.7487 71.6358 34.1829 71.4606 33.6857C71.2901 33.1886 71.0368 32.7956 70.7006 32.5067C70.3645 32.2179 69.9454 32.0735 69.4435 32.0735C68.9369 32.0735 68.5108 32.2179 68.1651 32.5067C67.8242 32.7956 67.5662 33.1886 67.391 33.6857C67.2205 34.1829 67.1353 34.7487 67.1353 35.3832C67.1353 36.0176 67.2205 36.5835 67.391 37.0806C67.5662 37.5778 67.8242 37.9708 68.1651 38.2596C68.5108 38.5437 68.9369 38.6857 69.4435 38.6857ZM75.9137 44.0124V38.4158H76.7518C76.9933 38.2643 77.1874 38.0228 77.3342 37.6914C77.4857 37.36 77.6088 36.9693 77.7035 36.5195C77.8029 36.0697 77.8787 35.5844 77.9308 35.0636C77.9876 34.538 78.0373 34.0077 78.0799 33.4727L78.364 29.9073H86.7305V38.4158H88.4208V44.0124H85.5373V40.8164H78.8683V44.0124H75.9137ZM79.7631 38.4158H83.8754V32.2369H80.935L80.8214 33.4727C80.7409 34.6374 80.6249 35.627 80.4734 36.4414C80.3219 37.2511 80.0851 37.9092 79.7631 38.4158ZM90.1839 40.8164V29.9073H99.7223V40.8164H96.8317V32.2866H93.0391V40.8164H90.1839ZM105.028 36.8249L108.955 29.9073H111.938V40.8164H109.055V33.8775L105.141 40.8164H102.137V29.9073H105.028V36.8249ZM119.293 41.0295C118.175 41.0295 117.214 40.7927 116.409 40.3192C115.609 39.841 114.993 39.1781 114.562 38.3306C114.136 37.4831 113.923 36.5077 113.923 35.4045C113.923 34.2871 114.139 33.3069 114.57 32.4641C115.005 31.6166 115.623 30.9561 116.423 30.4826C117.223 30.0044 118.175 29.7653 119.278 29.7653C120.23 29.7653 121.063 29.9381 121.778 30.2837C122.493 30.6294 123.059 31.1147 123.476 31.7397C123.893 32.3647 124.122 33.0986 124.165 33.9414H121.31C121.229 33.3969 121.016 32.9589 120.67 32.6275C120.33 32.2913 119.882 32.1232 119.328 32.1232C118.859 32.1232 118.45 32.2511 118.099 32.5067C117.754 32.7577 117.484 33.1246 117.29 33.6076C117.096 34.0906 116.999 34.6753 116.999 35.3619C116.999 36.0579 117.093 36.6497 117.283 37.1374C117.477 37.6251 117.749 37.9968 118.099 38.2525C118.45 38.5082 118.859 38.636 119.328 38.636C119.674 38.636 119.984 38.565 120.259 38.4229C120.538 38.2809 120.768 38.0749 120.947 37.805C121.132 37.5304 121.253 37.2013 121.31 36.8178H124.165C124.117 37.6512 123.89 38.3851 123.483 39.0195C123.08 39.6493 122.524 40.1417 121.814 40.4968C121.104 40.8519 120.263 41.0295 119.293 41.0295ZM129.213 41.0224C128.517 41.0224 127.896 40.9016 127.352 40.6602C126.807 40.4139 126.377 40.0517 126.059 39.5735C125.747 39.0906 125.591 38.4892 125.591 37.7695C125.591 37.1635 125.702 36.6545 125.924 36.2425C126.147 35.8306 126.45 35.4992 126.833 35.2482C127.217 34.9973 127.653 34.8079 128.14 34.68C128.633 34.5522 129.149 34.4622 129.689 34.4102C130.323 34.3439 130.834 34.2823 131.223 34.2255C131.611 34.1639 131.893 34.074 132.068 33.9556C132.243 33.8372 132.331 33.6621 132.331 33.43V33.3874C132.331 32.9376 132.189 32.5896 131.904 32.3434C131.625 32.0972 131.227 31.9741 130.711 31.9741C130.167 31.9741 129.734 32.0948 129.412 32.3363C129.09 32.573 128.877 32.8713 128.772 33.2312L125.974 33.0039C126.116 32.341 126.395 31.7681 126.812 31.2852C127.229 30.7975 127.766 30.4234 128.424 30.163C129.087 29.8978 129.854 29.7653 130.725 29.7653C131.332 29.7653 131.912 29.8363 132.466 29.9783C133.024 30.1204 133.519 30.3406 133.95 30.6388C134.386 30.9371 134.729 31.3207 134.98 31.7894C135.231 32.2534 135.356 32.8098 135.356 33.4585V40.8164H132.487V39.3036H132.402C132.226 39.6445 131.992 39.9452 131.699 40.2056C131.405 40.4613 131.052 40.6625 130.64 40.8093C130.228 40.9513 129.752 41.0224 129.213 41.0224ZM130.079 38.9343C130.524 38.9343 130.917 38.8467 131.258 38.6715C131.599 38.4916 131.867 38.2501 132.061 37.9471C132.255 37.6441 132.352 37.3008 132.352 36.9173V35.7596C132.257 35.8211 132.127 35.878 131.961 35.93C131.8 35.9774 131.618 36.0224 131.414 36.065C131.211 36.1029 131.007 36.1384 130.804 36.1715C130.6 36.1999 130.415 36.226 130.25 36.2496C129.895 36.3017 129.584 36.3846 129.319 36.4982C129.054 36.6119 128.848 36.7657 128.701 36.9599C128.555 37.1493 128.481 37.386 128.481 37.6701C128.481 38.082 128.63 38.3969 128.929 38.6147C129.232 38.8278 129.615 38.9343 130.079 38.9343ZM136.608 32.2866V29.9073H146.494V32.2866H142.979V40.8164H140.095V32.2866H136.608ZM150.225 33.2596H153.485C154.929 33.2596 156.056 33.6052 156.865 34.2965C157.675 34.9831 158.08 35.9016 158.08 37.0522C158.08 37.8003 157.898 38.4585 157.533 39.0266C157.168 39.5901 156.643 40.0304 155.956 40.3477C155.27 40.6602 154.446 40.8164 153.485 40.8164H148.328V29.9073H151.219V38.4371H153.485C153.991 38.4371 154.408 38.3093 154.735 38.0536C155.061 37.7979 155.227 37.4712 155.232 37.0735C155.227 36.6521 155.061 36.3088 154.735 36.0437C154.408 35.7738 153.991 35.6388 153.485 35.6388H150.225V33.2596ZM165.015 41.0295C163.898 41.0295 162.937 40.7927 162.132 40.3192C161.332 39.841 160.716 39.1781 160.285 38.3306C159.859 37.4831 159.646 36.5077 159.646 35.4045C159.646 34.2871 159.861 33.3069 160.292 32.4641C160.728 31.6166 161.346 30.9561 162.146 30.4826C162.946 30.0044 163.898 29.7653 165.001 29.7653C165.953 29.7653 166.786 29.9381 167.501 30.2837C168.216 30.6294 168.782 31.1147 169.199 31.7397C169.615 32.3647 169.845 33.0986 169.887 33.9414H167.032C166.952 33.3969 166.739 32.9589 166.393 32.6275C166.052 32.2913 165.605 32.1232 165.051 32.1232C164.582 32.1232 164.172 32.2511 163.822 32.5067C163.476 32.7577 163.207 33.1246 163.012 33.6076C162.818 34.0906 162.721 34.6753 162.721 35.3619C162.721 36.0579 162.816 36.6497 163.005 37.1374C163.199 37.6251 163.472 37.9968 163.822 38.2525C164.172 38.5082 164.582 38.636 165.051 38.636C165.396 38.636 165.707 38.565 165.981 38.4229C166.261 38.2809 166.49 38.0749 166.67 37.805C166.855 37.5304 166.975 37.2013 167.032 36.8178H169.887C169.84 37.6512 169.613 38.3851 169.206 39.0195C168.803 39.6493 168.247 40.1417 167.537 40.4968C166.826 40.8519 165.986 41.0295 165.015 41.0295ZM178.217 40.8164V32.2795H176.171C175.617 32.2795 175.196 32.4073 174.907 32.663C174.618 32.9187 174.476 33.2217 174.481 33.5721C174.476 33.9272 174.613 34.2279 174.893 34.4741C175.177 34.7156 175.594 34.8363 176.143 34.8363H179.225V36.8817H176.143C175.21 36.8817 174.403 36.7397 173.721 36.4556C173.039 36.1715 172.513 35.7762 172.144 35.2695C171.775 34.7582 171.593 34.1639 171.597 33.4869C171.593 32.7766 171.775 32.154 172.144 31.619C172.513 31.0792 173.041 30.6602 173.728 30.3619C174.419 30.0588 175.234 29.9073 176.171 29.9073H181.036V40.8164H178.217ZM171.285 40.8164L174.317 35.1346H177.208L174.183 40.8164H171.285Z" fill="white"/>
<defs>
<linearGradient id="paint0_linear_87_399" x1="230" y1="33.4629" x2="-6.20407e-07" y2="33.4629" gradientUnits="userSpaceOnUse">
<stop stop-color="#3C8DE9"/>
<stop offset="1" stop-color="#4745E9"/>
</linearGradient>
</defs>
</svg>
