<svg width="21" height="19" viewBox="0 0 21 19" fill="none" xmlns="http://www.w3.org/2000/svg">
<path d="M7.23145 0.5C4.47002 0.5 2.23145 2.73858 2.23145 5.5C2.23145 8.26142 4.47002 10.5 7.23145 10.5C9.99287 10.5 12.2314 8.26142 12.2314 5.5C12.2314 2.73858 9.99287 0.5 7.23145 0.5ZM4.23145 5.5C4.23145 3.84315 5.57459 2.5 7.23145 2.5C8.8883 2.5 10.2314 3.84315 10.2314 5.5C10.2314 7.15685 8.8883 8.5 7.23145 8.5C5.57459 8.5 4.23145 7.15685 4.23145 5.5Z" fill="black"/>
<path d="M15.1394 5.71822C14.858 5.57478 14.5467 5.5 14.2309 5.5V3.5C14.8625 3.5 15.4852 3.6495 16.0478 3.93639C16.1098 3.96799 16.1709 4.00115 16.2309 4.03584C16.7163 4.31608 17.1381 4.69563 17.4682 5.15049C17.8392 5.66166 18.0839 6.25341 18.1822 6.87731C18.2805 7.5012 18.2297 8.13952 18.0339 8.73999C17.8381 9.34047 17.5029 9.88605 17.0557 10.332C16.6085 10.7781 16.062 11.1118 15.461 11.3061C14.9262 11.4789 14.3618 11.5369 13.8045 11.4771C13.7355 11.4697 13.6667 11.4605 13.598 11.4495C12.9748 11.3496 12.384 11.1037 11.8741 10.7318L11.873 10.731L13.052 9.11551C13.3071 9.30166 13.6027 9.42471 13.9145 9.47468C14.2263 9.52465 14.5455 9.50008 14.846 9.40296C15.1465 9.30585 15.4197 9.13897 15.6433 8.91596C15.8669 8.69296 16.0345 8.42018 16.1324 8.11995C16.2303 7.81972 16.2557 7.50057 16.2065 7.18863C16.1574 6.87669 16.035 6.58083 15.8495 6.32525C15.6641 6.06968 15.4207 5.86166 15.1394 5.71822Z" fill="black"/>
<path d="M18.2295 18.5C18.2295 17.975 18.1261 17.4551 17.9252 16.97C17.7243 16.4849 17.4298 16.0442 17.0585 15.6729C16.6873 15.3017 16.2465 15.0072 15.7615 14.8062C15.2764 14.6053 14.7565 14.5019 14.2314 14.5019V12.5C14.9135 12.5 15.5898 12.6163 16.2314 12.8431C16.331 12.8783 16.4298 12.9162 16.5275 12.9567C17.2555 13.2583 17.9169 13.7002 18.4741 14.2574C19.0312 14.8145 19.4732 15.4759 19.7747 16.2039C19.8152 16.3017 19.8531 16.4004 19.8883 16.5C20.1151 17.1416 20.2314 17.8179 20.2314 18.5H18.2295Z" fill="black"/>
<path d="M14.2314 18.5H12.2314C12.2314 15.7386 9.99287 13.5 7.23145 13.5C4.47002 13.5 2.23145 15.7386 2.23145 18.5H0.231445C0.231445 14.634 3.36545 11.5 7.23145 11.5C11.0974 11.5 14.2314 14.634 14.2314 18.5Z" fill="black"/>
</svg>
